<?xml version="1.0" standalone="no"?>
<!DOCTYPE svg PUBLIC "-//W3C//DTD SVG 20010904//EN"
 "http://www.w3.org/TR/2001/REC-SVG-20010904/DTD/svg10.dtd">
<svg version="1.0" xmlns="http://www.w3.org/2000/svg"
 width="450.000000pt" height="450.000000pt" viewBox="0 0 450.000000 450.000000"
 preserveAspectRatio="xMidYMid meet">

<g transform="translate(0.000000,450.000000) scale(0.100000,-0.100000)"
fill="#000000" stroke="none">
<path d="M1285 4488 c-3 -7 -4 -139 -3 -293 l3 -280 150 0 150 0 0 290 0 290
-148 3 c-113 2 -149 0 -152 -10z"/>
<path d="M1835 4488 c-3 -7 -4 -139 -3 -293 l3 -280 150 0 150 0 0 290 0 290
-148 3 c-113 2 -149 0 -152 -10z"/>
<path d="M2385 4488 c-3 -7 -4 -139 -3 -293 l3 -280 155 0 155 0 0 290 0 290
-153 3 c-117 2 -154 0 -157 -10z"/>
<path d="M2935 4488 c-3 -7 -4 -139 -3 -293 l3 -280 155 0 155 0 0 290 0 290
-153 3 c-117 2 -154 0 -157 -10z"/>
<path d="M1114 3586 c-95 -30 -180 -120 -204 -216 -7 -32 -10 -371 -8 -1160
l3 -1115 28 -57 c34 -69 91 -121 165 -148 53 -20 70 -20 1175 -18 l1122 3 53
29 c60 33 101 76 134 139 l23 42 3 1132 c2 1124 2 1132 -18 1187 -26 67 -92
139 -158 169 l-47 22 -1115 2 c-894 1 -1123 -1 -1156 -11z m1501 -1110 c31
-13 35 -19 35 -50 l0 -35 -35 15 c-51 21 -143 18 -182 -6 -51 -31 -77 -91 -77
-180 0 -82 13 -117 59 -160 23 -21 36 -25 93 -25 l67 0 0 80 0 80 -52 3 c-51
3 -53 4 -53 33 l0 29 90 0 90 0 0 -134 0 -134 -31 -11 c-106 -37 -210 -20
-273 43 -50 50 -66 98 -66 202 0 126 55 215 152 251 46 16 142 16 183 -1z
m-875 -26 l0 -30 -105 0 -105 0 0 -80 0 -80 100 0 100 0 0 -30 0 -30 -100 0
-100 0 0 -115 0 -115 -40 0 -40 0 0 255 0 255 145 0 145 0 0 -30z m390 8 c59
-30 82 -74 77 -145 -7 -96 -74 -151 -194 -161 l-63 -5 0 -88 0 -89 -40 0 -40
0 0 255 0 255 108 0 c92 0 114 -3 152 -22z m914 -221 c43 -133 81 -248 83
-255 4 -10 -6 -12 -38 -10 -42 3 -43 3 -57 56 l-15 52 -107 0 -107 0 -15 -52
c-14 -52 -15 -53 -56 -56 l-41 -3 85 255 86 256 51 0 52 0 79 -243z"/>
<path d="M1950 2321 l0 -101 59 0 c49 0 65 4 90 26 27 22 31 33 31 73 0 69
-29 94 -115 99 l-65 4 0 -101z"/>
<path d="M2870 2283 c-18 -60 -35 -114 -38 -120 -3 -10 17 -13 78 -13 61 0 81
3 78 13 -3 6 -20 60 -38 120 -18 59 -36 107 -40 107 -4 0 -22 -48 -40 -107z"/>
<path d="M4 3157 c-2 -7 -3 -78 -2 -157 l3 -145 290 0 290 0 0 155 0 155 -288
3 c-230 2 -289 0 -293 -11z"/>
<path d="M3924 3157 c-2 -7 -3 -78 -2 -157 l3 -145 288 -3 287 -2 0 160 0 160
-285 0 c-225 0 -287 -3 -291 -13z"/>
<path d="M4 2637 c-2 -7 -3 -76 -2 -152 l3 -140 290 0 290 0 0 150 0 150 -288
3 c-230 2 -289 0 -293 -11z"/>
<path d="M3924 2637 c-2 -7 -3 -76 -2 -152 l3 -140 288 -3 287 -2 0 155 0 155
-285 0 c-225 0 -287 -3 -291 -13z"/>
<path d="M4 2127 c-2 -7 -3 -78 -2 -157 l3 -145 290 0 290 0 0 155 0 155 -288
3 c-230 2 -289 0 -293 -11z"/>
<path d="M3924 2127 c-2 -7 -3 -78 -2 -157 l3 -145 288 -3 287 -2 0 160 0 160
-285 0 c-225 0 -287 -3 -291 -13z"/>
<path d="M4 1607 c-2 -7 -3 -76 -2 -152 l3 -140 290 0 290 0 0 150 0 150 -288
3 c-230 2 -289 0 -293 -11z"/>
<path d="M3924 1607 c-2 -7 -3 -76 -2 -152 l3 -140 288 -3 287 -2 0 155 0 155
-285 0 c-225 0 -287 -3 -291 -13z"/>
<path d="M1287 564 c-4 -4 -7 -133 -7 -286 l0 -278 155 0 155 0 -2 282 -3 283
-146 3 c-80 1 -148 -1 -152 -4z"/>
<path d="M1837 564 c-4 -4 -7 -133 -7 -286 l0 -278 155 0 155 0 -2 282 -3 283
-146 3 c-80 1 -148 -1 -152 -4z"/>
<path d="M2387 564 c-4 -4 -7 -133 -7 -286 l0 -278 160 0 160 0 -2 283 -3 282
-151 3 c-82 1 -153 -1 -157 -4z"/>
<path d="M2937 564 c-4 -4 -7 -133 -7 -286 l0 -278 160 0 160 0 -2 283 -3 282
-151 3 c-82 1 -153 -1 -157 -4z"/>
</g>
</svg>
