<?xml version="1.0" standalone="no"?>
<!DOCTYPE svg PUBLIC "-//W3C//DTD SVG 20010904//EN"
 "http://www.w3.org/TR/2001/REC-SVG-20010904/DTD/svg10.dtd">
<svg version="1.0" xmlns="http://www.w3.org/2000/svg"
 width="668.000000pt" height="600.000000pt" viewBox="0 0 668.000000 600.000000"
 preserveAspectRatio="xMidYMid meet">
<metadata>
Created by potrace 1.16, written by Peter Selinger 2001-2019
</metadata>
<g transform="translate(0.000000,600.000000) scale(0.100000,-0.100000)"
fill="#000000" stroke="none">
<path d="M4314 5941 c-67 -34 -172 -137 -239 -234 -22 -32 -48 -68 -57 -79
-10 -11 -23 -33 -30 -49 -7 -16 -16 -29 -20 -29 -5 0 -8 -5 -8 -11 0 -5 -20
-41 -45 -79 -25 -38 -45 -72 -45 -75 0 -4 -15 -30 -34 -58 -18 -29 -55 -87
-82 -130 -66 -106 -135 -209 -150 -224 -7 -7 -22 -29 -35 -50 -13 -21 -25 -40
-29 -43 -3 -3 -17 -23 -32 -46 -14 -22 -40 -56 -58 -75 -17 -19 -45 -53 -62
-76 -17 -24 -35 -43 -40 -43 -4 0 -8 -5 -8 -11 0 -29 -326 -329 -358 -329 -4
0 -26 -13 -48 -29 -34 -25 -204 -91 -233 -91 -18 0 -111 -43 -111 -52 0 -4 -6
-8 -12 -8 -7 0 -38 -16 -68 -34 -54 -34 -54 -35 -27 -41 70 -18 256 21 378 78
110 52 156 85 269 187 169 153 269 274 489 595 46 66 104 152 129 190 38 57
48 66 50 48 3 -23 -11 -77 -71 -273 -41 -131 -55 -172 -74 -217 -7 -17 -13
-37 -13 -43 0 -7 -12 -39 -26 -71 -23 -52 -31 -60 -64 -69 -52 -14 -161 -87
-315 -211 -71 -57 -135 -108 -142 -114 -97 -84 -267 -204 -383 -272 -205 -118
-455 -193 -546 -163 -33 11 -39 11 -51 -6 -8 -11 -31 -39 -52 -64 -22 -25 -62
-75 -90 -113 l-51 -68 16 -37 c10 -25 41 -60 91 -103 43 -35 89 -75 103 -88
14 -13 39 -33 57 -45 17 -11 84 -64 150 -117 118 -96 231 -184 310 -242 37
-27 41 -33 30 -48 -6 -10 -39 -57 -71 -105 -57 -83 -204 -273 -236 -304 -9 -8
-39 -44 -67 -80 -138 -176 -471 -454 -668 -559 -102 -54 -98 -66 11 -32 34 11
76 33 95 51 19 17 72 59 119 92 488 354 966 1004 1434 1953 145 293 254 529
321 690 18 44 59 141 90 215 56 133 169 421 185 470 118 369 212 562 327 676
40 38 108 84 128 84 13 0 2 -26 -38 -88 -89 -136 -203 -377 -425 -897 -50
-115 -118 -271 -152 -345 -34 -74 -86 -190 -115 -257 -82 -185 -400 -816 -486
-965 -22 -36 -39 -69 -39 -71 0 -10 -232 -380 -342 -547 -94 -142 -210 -308
-255 -365 -4 -5 -19 -24 -33 -41 -14 -17 -38 -48 -55 -70 -16 -21 -55 -66 -85
-99 -31 -33 -84 -94 -119 -135 -35 -41 -116 -129 -180 -195 -161 -165 -153
-148 -84 -179 42 -20 82 -52 148 -119 49 -51 97 -106 105 -123 8 -16 18 -33
23 -39 18 -24 58 -88 73 -118 9 -17 20 -34 24 -37 10 -6 130 -239 130 -251 0
-5 15 -40 33 -78 l34 -70 51 34 c127 86 450 151 917 186 153 11 318 46 380 81
11 7 48 26 82 43 63 33 108 64 146 101 45 43 97 104 97 113 0 5 6 16 13 23 16
17 77 133 77 147 0 6 11 35 25 64 14 28 30 82 35 118 5 37 15 80 21 95 11 32
16 58 24 148 3 32 7 61 9 65 18 28 24 502 12 846 -3 99 -9 248 -12 330 -2 83
-7 164 -9 180 -14 95 -23 448 -23 885 1 376 1 396 12 615 17 321 68 606 124
693 37 57 112 -11 166 -150 31 -81 112 -404 131 -523 3 -22 10 -60 16 -85 5
-25 11 -58 13 -75 7 -58 37 -272 56 -400 20 -139 39 -282 46 -355 2 -25 6 -56
9 -70 5 -23 19 -150 31 -265 3 -27 7 -66 9 -85 3 -19 10 -73 15 -120 6 -47 14
-119 20 -160 13 -101 37 -295 50 -405 6 -49 17 -124 25 -165 7 -41 21 -120 30
-175 10 -55 30 -161 45 -235 29 -143 52 -266 71 -391 l12 -76 76 5 c125 7 309
-51 406 -128 21 -17 41 -30 44 -30 4 0 16 -8 27 -17 10 -10 46 -38 79 -62 69
-51 94 -74 259 -231 176 -167 308 -286 373 -337 129 -99 162 -123 168 -123 9
0 5 20 -11 58 -10 20 -18 42 -19 47 -2 6 -16 40 -33 75 -16 36 -48 105 -71
153 -22 49 -41 93 -41 98 0 4 -6 23 -14 41 -8 18 -35 85 -61 148 -26 63 -51
123 -57 134 -10 20 -67 171 -73 196 -2 8 -17 49 -35 90 -41 98 -44 107 -68
161 -11 25 -28 69 -37 97 -10 29 -21 55 -26 58 -5 3 -9 15 -9 28 0 12 -4 26
-8 31 -4 6 -18 37 -31 70 -12 33 -27 69 -32 80 -4 11 -25 65 -44 120 -20 55
-41 112 -47 127 -5 15 -10 30 -9 33 1 3 -6 22 -15 43 -8 20 -31 82 -49 137
-74 218 -96 281 -104 300 -13 31 -32 87 -41 120 -5 17 -32 95 -60 175 -28 80
-53 156 -56 169 -3 13 -12 37 -20 52 -8 16 -12 29 -9 29 3 0 -2 17 -11 38 -8
20 -17 44 -19 52 -2 8 -20 62 -40 120 -20 58 -47 137 -60 175 -13 39 -38 111
-55 160 -17 50 -35 94 -41 100 -5 5 -9 19 -9 31 0 13 -4 25 -9 29 -5 3 -13 20
-17 38 -3 17 -12 45 -19 62 -13 30 -34 84 -62 160 -8 22 -19 48 -24 57 -5 10
-9 22 -9 28 0 6 -9 32 -21 58 -12 26 -25 56 -29 67 -9 22 -25 61 -60 140 -29
67 -193 399 -201 405 -3 3 -12 17 -20 31 -61 115 -138 218 -219 292 -83 77
-129 99 -215 104 -63 4 -76 2 -131 -26z"/>
</g>
</svg>
